<?xml version="1.0" encoding="UTF-8" standalone="no"?>
<!-- Created with Inkscape (http://www.inkscape.org/) -->

<svg
   width="210mm"
   height="210mm"
   viewBox="0 55 210 210"
   version="1.1"
   id="svg5"
   inkscape:version="1.1 (c68e22c387, 2021-05-23)"
   sodipodi:docname="snelle hap logo.svg"
   inkscape:export-filename="C:\Users\estel\OneDrive - Haags Montessori Lyceum\Bureaublad\snelle hap logo.png"
   inkscape:export-xdpi="96"
   inkscape:export-ydpi="96"
   xmlns:inkscape="http://www.inkscape.org/namespaces/inkscape"
   xmlns:sodipodi="http://sodipodi.sourceforge.net/DTD/sodipodi-0.dtd"
   xmlns:xlink="http://www.w3.org/1999/xlink"
   xmlns="http://www.w3.org/2000/svg"
   xmlns:svg="http://www.w3.org/2000/svg">
  <sodipodi:namedview
     id="namedview7"
     pagecolor="#ffffff"
     bordercolor="#666666"
     borderopacity="1.0"
     inkscape:pageshadow="2"
     inkscape:pageopacity="0.0"
     inkscape:pagecheckerboard="0"
     inkscape:document-units="mm"
     showgrid="false"
     inkscape:snap-bbox="true"
     inkscape:bbox-paths="true"
     inkscape:bbox-nodes="true"
     inkscape:snap-bbox-edge-midpoints="true"
     inkscape:snap-bbox-midpoints="true"
     inkscape:object-paths="true"
     inkscape:snap-intersection-paths="true"
     inkscape:snap-smooth-nodes="true"
     inkscape:snap-midpoints="true"
     inkscape:snap-global="false"
     inkscape:zoom="0.48947917"
     inkscape:cx="500.53203"
     inkscape:cy="577.14407"
     inkscape:window-width="1366"
     inkscape:window-height="705"
     inkscape:window-x="-8"
     inkscape:window-y="-8"
     inkscape:window-maximized="1"
     inkscape:current-layer="layer1"
     showguides="false" />
  <defs
     id="defs2">
    <linearGradient
       inkscape:collect="always"
       id="linearGradient86551">
      <stop
         style="stop-color:#7e001e;stop-opacity:1"
         offset="0"
         id="stop86547" />
      <stop
         style="stop-color:#690019;stop-opacity:1"
         offset="1"
         id="stop86549" />
    </linearGradient>
    <rect
       x="608"
       y="696"
       width="416"
       height="132"
       id="rect23638" />
    <rect
       x="88"
       y="272"
       width="628"
       height="152"
       id="rect21216" />
    <clipPath
       clipPathUnits="userSpaceOnUse"
       id="clipPath1945">
      <path
         id="path1947"
         style="opacity:0.5;fill:#008000;stroke-width:7.10287"
         d="M 29.849834,102.23568 H 173.87527 l -17.9099,173.129 H 47.759731 Z"
         sodipodi:nodetypes="ccccc" />
    </clipPath>
    <clipPath
       clipPathUnits="userSpaceOnUse"
       id="clipPath3824">
      <path
         id="path3826"
         style="opacity:0.141026;fill:#000000;stroke-width:2.5"
         d="m 101.86255,-32.088585 h 194.0239 V 285.81213 h -194.0239 z" />
    </clipPath>
    <clipPath
       clipPathUnits="userSpaceOnUse"
       id="clipPath19859">
      <rect
         style="opacity:1;fill:#ff0000;fill-opacity:1;stroke:none;stroke-width:2.15419"
         id="rect19861"
         width="152.77391"
         height="184.13762"
         x="104.59938"
         y="55.163219"
         ry="1.1035647" />
    </clipPath>
    <clipPath
       clipPathUnits="userSpaceOnUse"
       id="clipPath20321">
      <path
         style="fill:#ff0000;stroke:none;stroke-width:0.237532px;stroke-linecap:butt;stroke-linejoin:miter;stroke-opacity:1"
         d="m 91.021969,97.221048 c 0,0 32.856951,12.754532 33.098741,41.144642 0.24178,28.39012 0.24178,49.89779 0.24178,49.89779 0,0 60.73646,24.57024 61.20011,15.37361 0.46363,-9.19663 6.02728,-158.278905 6.02728,-158.278905 L 98.398799,58.911116 Z"
         id="path20323" />
    </clipPath>
    <clipPath
       clipPathUnits="userSpaceOnUse"
       id="clipPath28675">
      <rect
         style="opacity:1;fill:#000000;fill-opacity:1;stroke:none;stroke-width:2.84099"
         id="rect28677"
         width="103.1875"
         height="150.28331"
         x="126.42776"
         y="149.97037"
         ry="10.715625" />
    </clipPath>
    <linearGradient
       inkscape:collect="always"
       xlink:href="#linearGradient86551"
       id="linearGradient89806"
       gradientUnits="userSpaceOnUse"
       x1="-10.871182"
       y1="195.87017"
       x2="227.00241"
       y2="195.87017"
       gradientTransform="matrix(0.95105944,0,0,0.95105944,4.9432477,9.5859956)" />
  </defs>
  <g
     inkscape:label="Laag 1"
     inkscape:groupmode="layer"
     id="layer1">
    <path
       id="path29155"
       style="fill:none;stroke:#7e001e;stroke-width:4.68863"
       d="M 205.60792,160.33751 A 100.00452,100.00452 0 0 1 105.6034,260.34204 100.00452,100.00452 0 0 1 5.5988799,160.33751 100.00452,100.00452 0 0 1 105.6034,60.332987 100.00452,100.00452 0 0 1 205.60792,160.33751 Z" />
    <g
       id="g95070"
       transform="matrix(0.81811654,0,0,0.81811654,17.475832,2.3217013)">
      <g
         id="g28947"
         transform="translate(11.1125,-24.870833)">
        <g
           id="g3971"
           transform="matrix(0.66423399,0,0,0.61139719,2.1937161,119.9303)">
          <g
             id="g2697"
             transform="translate(0,2.1616618e-5)">
            <rect
               style="opacity:1;fill:#cccccc;stroke:none;stroke-width:2.84449"
               id="rect109"
               width="124.62305"
               height="32.08857"
               x="39.551025"
               y="38.05854" />
            <rect
               style="opacity:1;fill:#7e001e;fill-opacity:1;stroke:none;stroke-width:3.28698"
               id="rect1536"
               width="166.41281"
               height="32.08857"
               x="18.656145"
               y="70.14711" />
            <path
               id="rect1538"
               style="opacity:1;fill:#cccccc;stroke-width:7.10287"
               d="M 29.849833,102.23568 H 173.87527 l -17.9099,173.12901 H 47.759731 Z"
               sodipodi:nodetypes="ccccc" />
            <rect
               style="opacity:1;fill:#7e001e;fill-opacity:1;stroke:none;stroke-width:2.58308"
               id="rect1853"
               width="282.0809"
               height="117.90682"
               x="-28.357342"
               y="126.86178"
               clip-path="url(#clipPath1945)" />
          </g>
          <g
             id="g3549"
             transform="translate(0,2.1616618e-5)"
             clip-path="url(#clipPath3824)"
             style="opacity:0.169872;fill:#000000;fill-opacity:1">
            <rect
               style="opacity:1;fill:#000000;fill-opacity:1;stroke:none;stroke-width:2.84449"
               id="rect3541"
               width="124.62305"
               height="32.08857"
               x="39.551025"
               y="38.05854" />
            <rect
               style="opacity:1;fill:#000000;fill-opacity:1;stroke:none;stroke-width:3.28698"
               id="rect3543"
               width="166.41281"
               height="32.08857"
               x="18.656145"
               y="70.14711" />
            <path
               id="path3545"
               style="opacity:1;fill:#000000;fill-opacity:1;stroke-width:7.10287"
               d="M 29.849833,102.23568 H 173.87527 l -17.9099,173.12901 H 47.759731 Z"
               sodipodi:nodetypes="ccccc" />
            <rect
               style="opacity:1;fill:#000000;fill-opacity:1;stroke:none;stroke-width:2.58308"
               id="rect3547"
               width="282.0809"
               height="117.90682"
               x="-28.357342"
               y="126.86178"
               clip-path="url(#clipPath1945)" />
          </g>
        </g>
        <g
           id="g28807"
           transform="translate(7.4083333,33.866667)">
          <g
             id="g28197"
             transform="translate(-20.6375,-6.8791666)">
            <rect
               style="fill:#803300;fill-opacity:1;stroke:none;stroke-width:2.75495"
               id="rect5180"
               width="115.68993"
               height="28.13965"
               x="72.515236"
               y="231.00771"
               ry="14.069825" />
            <path
               id="rect24997"
               style="opacity:1;fill:#ff9643;stroke-width:2.36958"
               d="M 80.221657,254.00003 H 182.35083 c 4.17751,0 5.95313,0.98187 5.95313,5.15938 0,4.1775 -6.54421,11.20568 -10.71563,10.9802 -9.78958,-0.52917 -88.413308,-0.26458 -96.837506,0 -4.175447,0.13114 -8.334375,-6.8027 -8.334375,-10.9802 0,-4.17751 3.627702,-5.15938 7.805208,-5.15938 z"
               sodipodi:nodetypes="sssssss" />
            <path
               id="path8813"
               style="fill:#89a02c;fill-opacity:1;stroke:none;stroke-width:2.53024"
               d="m 81.240325,226.50523 a 8.4205644,9.7550738 0 0 0 -8.420621,9.75515 8.4205644,9.7550738 0 0 0 8.420621,9.75513 8.4205644,9.7550738 0 0 0 6.3151,-3.31177 8.4205644,9.7550738 0 0 0 6.315589,3.31177 8.4205644,9.7550738 0 0 0 5.438489,-2.31593 8.4205644,9.7550738 0 0 0 5.437997,2.31593 8.4205644,9.7550738 0 0 0 4.91223,-1.83912 8.4205644,9.7550738 0 0 0 4.91175,1.83912 8.4205644,9.7550738 0 0 0 6.14016,-3.08208 8.4205644,9.7550738 0 0 0 6.14017,3.08208 8.4205644,9.7550738 0 0 0 5.438,-2.31593 8.4205644,9.7550738 0 0 0 5.4385,2.31593 8.4205644,9.7550738 0 0 0 5.61341,-2.49043 8.4205644,9.7550738 0 0 0 5.61392,2.49043 8.4205644,9.7550738 0 0 0 4.56138,-1.56215 8.4205644,9.7550738 0 0 0 4.56091,1.56215 8.4205644,9.7550738 0 0 0 5.08766,-1.98941 8.4205644,9.7550738 0 0 0 5.08715,1.98941 8.4205644,9.7550738 0 0 0 5.61392,-2.491 8.4205644,9.7550738 0 0 0 5.61342,2.491 8.4205644,9.7550738 0 0 0 8.42062,-9.75513 8.4205644,9.7550738 0 0 0 -8.42062,-9.75515 8.4205644,9.7550738 0 0 0 -5.611,2.48819 8.4205644,9.7550738 0 0 0 -5.61634,-2.48819 8.4205644,9.7550738 0 0 0 -5.08328,1.98606 8.4205644,9.7550738 0 0 0 -5.09153,-1.98606 8.4205644,9.7550738 0 0 0 -4.55652,1.55935 8.4205644,9.7550738 0 0 0 -4.56577,-1.55935 8.4205644,9.7550738 0 0 0 -5.61101,2.48819 8.4205644,9.7550738 0 0 0 -5.61632,-2.48819 8.4205644,9.7550738 0 0 0 -5.43461,2.31199 8.4205644,9.7550738 0 0 0 -5.44189,-2.31199 8.4205644,9.7550738 0 0 0 -6.1392,3.08095 8.4205644,9.7550738 0 0 0 -6.14113,-3.08095 8.4205644,9.7550738 0 0 0 -4.90786,1.83574 8.4205644,9.7550738 0 0 0 -4.91612,-1.83574 8.4205644,9.7550738 0 0 0 -5.434109,2.31199 8.4205644,9.7550738 0 0 0 -5.442377,-2.31199 8.4205644,9.7550738 0 0 0 -6.311702,3.30725 8.4205644,9.7550738 0 0 0 -6.318987,-3.30725 z" />
            <rect
               style="fill:#ffc830;fill-opacity:1;stroke:none;stroke-width:3.39291"
               id="rect17775"
               width="3.3489192"
               height="15.007813"
               x="157.15154"
               y="219.93945"
               ry="1.8759767" />
            <rect
               style="fill:#ffc830;fill-opacity:1;stroke:none;stroke-width:1.9403"
               id="rect10521"
               width="122.99667"
               height="7.8791022"
               x="68.86187"
               y="229.13171"
               ry="3.9395511" />
            <rect
               style="fill:#ffc830;fill-opacity:1;stroke:none;stroke-width:3.39291"
               id="rect10899"
               width="3.3489192"
               height="15.007813"
               x="92.456505"
               y="225.94255"
               ry="1.8759767" />
            <rect
               style="fill:#ffc830;fill-opacity:1;stroke:none;stroke-width:3.39291"
               id="rect17777"
               width="3.3489192"
               height="15.007813"
               x="152.88927"
               y="225.94255"
               ry="1.8759767" />
            <path
               id="path9893"
               style="fill:#ff9643;fill-opacity:1;stroke:none;stroke-width:3.32565"
               d="m 130.36038,195.1197 a 59.519432,33.590954 0 0 0 -59.519763,33.59102 59.519432,33.590954 0 0 0 0.05524,0.79595 H 189.82449 a 59.519432,33.590954 0 0 0 0.0553,-0.79595 59.519432,33.590954 0 0 0 -59.51934,-33.59102 z" />
            <rect
               style="fill:#ffc830;fill-opacity:1;stroke:none;stroke-width:3.39291"
               id="rect10773"
               width="3.3489192"
               height="15.007813"
               x="88.194237"
               y="231.94568"
               ry="1.8759767" />
            <path
               style="fill:#fff3c0;fill-opacity:1;stroke:none;stroke-width:0.0449928px;stroke-linecap:butt;stroke-linejoin:miter;stroke-opacity:1"
               d="m 85.256817,218.85415 c 0,0 -0.05998,1.38942 -1.25865,2.81682 -1.19868,1.4274 -2.947273,1.60566 -3.322929,0.52537 -0.375657,-1.08031 0.368423,-2.35025 1.519993,-3.0986 1.151583,-0.74833 3.061586,-0.24359 3.061586,-0.24359 z"
               id="path14993" />
            <path
               style="fill:#fff3c0;fill-opacity:1;stroke:none;stroke-width:0.0449928px;stroke-linecap:butt;stroke-linejoin:miter;stroke-opacity:1"
               d="m 94.632145,206.60007 c 0,0 0.259066,1.36322 -0.577683,3.05847 -0.836748,1.69526 -2.492107,2.32147 -3.103134,1.37102 -0.611027,-0.95046 -0.179277,-2.37513 0.766844,-3.39953 0.946121,-1.02438 2.913973,-1.02996 2.913973,-1.02996 z"
               id="path14995" />
            <path
               style="fill:#fff3c0;fill-opacity:1;stroke:none;stroke-width:0.0449928px;stroke-linecap:butt;stroke-linejoin:miter;stroke-opacity:1"
               d="m 127.59294,200.12564 c 0,0 -0.10104,1.3867 -1.34133,2.77314 -1.2403,1.38644 -2.99331,1.50589 -3.33682,0.41351 -0.34352,-1.09238 0.43774,-2.33671 1.61089,-3.04599 1.17314,-0.7093 3.06726,-0.14066 3.06726,-0.14066 z"
               id="path15102" />
            <path
               style="fill:#fff3c0;fill-opacity:1;stroke:none;stroke-width:0.0449928px;stroke-linecap:butt;stroke-linejoin:miter;stroke-opacity:1"
               d="m 142.43918,201.22384 c 0,0 1.23862,-0.43894 2.91912,0.24102 1.68051,0.67996 2.46414,2.35513 1.65262,3.11641 -0.8115,0.76128 -2.19094,0.47696 -3.25971,-0.39984 -1.06876,-0.87682 -1.31203,-2.95759 -1.31203,-2.95759 z"
               id="path15104" />
            <path
               style="fill:#fff3c0;fill-opacity:1;stroke:none;stroke-width:0.0449928px;stroke-linecap:butt;stroke-linejoin:miter;stroke-opacity:1"
               d="m 132.58986,208.42483 c 0,0 1.21916,0.4969 2.11467,2.15771 0.89556,1.6608 0.50538,3.48581 -0.57515,3.52668 -1.08051,0.0408 -1.97846,-1.11061 -2.28369,-2.51058 -0.30524,-1.39999 0.74417,-3.17381 0.74417,-3.17381 z"
               id="path15106" />
            <path
               style="fill:#fff3c0;fill-opacity:1;stroke:none;stroke-width:0.0449928px;stroke-linecap:butt;stroke-linejoin:miter;stroke-opacity:1"
               d="m 95.487365,217.56714 c 0,0 0.546353,1.26318 0.09793,3.11804 -0.448424,1.85488 -1.924249,2.86997 -2.72404,2.09473 -0.799791,-0.77525 -0.687109,-2.26753 0.01256,-3.49633 0.699662,-1.22878 2.613551,-1.71644 2.61355,-1.71644 z"
               id="path15108" />
            <path
               style="fill:#fff3c0;fill-opacity:1;stroke:none;stroke-width:0.0449928px;stroke-linecap:butt;stroke-linejoin:miter;stroke-opacity:1"
               d="m 157.04123,208.33975 c 0,0 1.30486,0.0365 2.6679,1.28519 1.36303,1.24876 1.56488,3.10809 0.55868,3.52968 -1.00623,0.42156 -2.21252,-0.34601 -2.93746,-1.55804 -0.72495,-1.21202 -0.28912,-3.25683 -0.28912,-3.25683 z"
               id="path15110" />
            <path
               style="fill:#fff3c0;fill-opacity:1;stroke:none;stroke-width:0.0449928px;stroke-linecap:butt;stroke-linejoin:miter;stroke-opacity:1"
               d="m 146.05816,210.57182 c 0,0 1.14778,0.66239 1.83194,2.43366 0.68417,1.77127 0.0735,3.52627 -1.00272,3.41635 -1.07626,-0.10993 -1.82529,-1.37656 -1.95622,-2.80704 -0.13093,-1.43047 1.127,-3.04297 1.127,-3.04297 z"
               id="path15230" />
            <path
               style="fill:#fff3c0;fill-opacity:1;stroke:none;stroke-width:0.0449928px;stroke-linecap:butt;stroke-linejoin:miter;stroke-opacity:1"
               d="m 106.04586,211.36542 c 0,0 0.33862,1.34327 -0.39693,3.091 -0.73555,1.74774 -2.35088,2.48312 -3.01652,1.57525 -0.66564,-0.90785 -0.31843,-2.35851 0.56568,-3.44399 0.8841,-1.08546 2.84777,-1.22226 2.84777,-1.22226 z"
               id="path15319" />
            <path
               style="fill:#fff3c0;fill-opacity:1;stroke:none;stroke-width:0.0449928px;stroke-linecap:butt;stroke-linejoin:miter;stroke-opacity:1"
               d="m 111.19576,219.93664 c 0,0 0.29162,1.35573 -0.50428,3.07318 -0.79592,1.71745 -2.43574,2.38844 -3.06932,1.4549 -0.63358,-0.93355 -0.23606,-2.36949 0.68523,-3.41925 0.92129,-1.04977 2.88837,-1.10883 2.88837,-1.10883 z"
               id="path15321" />
            <path
               style="fill:#fff3c0;fill-opacity:1;stroke:none;stroke-width:0.0449928px;stroke-linecap:butt;stroke-linejoin:miter;stroke-opacity:1"
               d="m 139.71341,217.74849 c 0,0 0.98075,0.91785 1.278,2.8069 0.29725,1.88906 -0.66443,3.45536 -1.69078,3.09309 -1.02634,-0.36229 -1.4922,-1.7747 -1.32123,-3.20039 0.17097,-1.42566 1.73401,-2.6996 1.73401,-2.6996 z"
               id="path15323" />
            <path
               style="fill:#fff3c0;fill-opacity:1;stroke:none;stroke-width:0.0449928px;stroke-linecap:butt;stroke-linejoin:miter;stroke-opacity:1"
               d="m 168.63695,209.99311 c 0,0 1.18371,-0.58627 2.9259,-0.11449 1.74221,0.47179 2.69964,2.04106 1.9747,2.89578 -0.72494,0.85475 -2.12578,0.73952 -3.28124,-0.002 -1.15546,-0.74153 -1.61936,-2.7793 -1.61936,-2.7793 z"
               id="path15325" />
            <path
               style="fill:#fff3c0;fill-opacity:1;stroke:none;stroke-width:0.0449928px;stroke-linecap:butt;stroke-linejoin:miter;stroke-opacity:1"
               d="m 114.13248,201.25526 c 0,0 0.5517,1.26056 0.11113,3.11757 -0.44058,1.85701 -1.91209,2.87918 -2.71515,2.10778 -0.80306,-0.77138 -0.6967,-2.2642 -0.002,-3.49636 0.69445,-1.23211 2.60627,-1.72899 2.60627,-1.72899 z"
               id="path15331" />
            <path
               style="fill:#fff3c0;fill-opacity:1;stroke:none;stroke-width:0.0449928px;stroke-linecap:butt;stroke-linejoin:miter;stroke-opacity:1"
               d="m 120.26013,209.15226 c 0,0 0.44987,1.30568 -0.13624,3.11644 -0.58611,1.81075 -2.13335,2.69692 -2.87244,1.85605 -0.73908,-0.84086 -0.51484,-2.3188 0.27472,-3.48407 0.78959,-1.16528 2.73393,-1.48842 2.73393,-1.48842 z"
               id="path15341" />
            <path
               style="fill:#fff3c0;fill-opacity:1;stroke:none;stroke-width:0.0449928px;stroke-linecap:butt;stroke-linejoin:miter;stroke-opacity:1"
               d="m 125.41706,219.85099 c 0,0 1.21982,0.49514 2.11744,2.15467 0.89762,1.65952 0.50977,3.48508 -0.57068,3.52749 -1.08047,0.0424 -1.97988,-1.10774 -2.2869,-2.50727 -0.307,-1.39954 0.74014,-3.17489 0.74014,-3.17489 z"
               id="path15343" />
            <path
               style="fill:#fff3c0;fill-opacity:1;stroke:none;stroke-width:0.0449928px;stroke-linecap:butt;stroke-linejoin:miter;stroke-opacity:1"
               d="m 153.34876,218.48632 c 0,0 1.08071,0.78005 1.59718,2.6147 0.51648,1.83467 -0.25397,3.51677 -1.31478,3.294 -1.06078,-0.22278 -1.68864,-1.56209 -1.68622,-2.99936 0.003,-1.43724 1.4038,-2.90935 1.4038,-2.90935 z"
               id="path17262" />
            <path
               style="fill:#fff3c0;fill-opacity:1;stroke:none;stroke-width:0.0449928px;stroke-linecap:butt;stroke-linejoin:miter;stroke-opacity:1"
               d="m 162.52128,220.18054 c 0,0 1.30486,0.0365 2.6679,1.28519 1.36303,1.24875 1.56488,3.1081 0.55868,3.52968 -1.00623,0.42157 -2.21252,-0.346 -2.93746,-1.55802 -0.72496,-1.21202 -0.28912,-3.25685 -0.28912,-3.25685 z"
               id="path19163" />
            <path
               style="fill:#fff3c0;fill-opacity:1;stroke:none;stroke-width:0.0449928px;stroke-linecap:butt;stroke-linejoin:miter;stroke-opacity:1"
               d="m 175.06078,219.01857 c 0,0 1.26634,-0.33736 2.89348,0.4767 1.62715,0.81408 2.28904,2.54786 1.4256,3.24124 -0.86348,0.69335 -2.21865,0.29816 -3.22178,-0.66267 -1.00316,-0.96078 -1.0973,-3.05527 -1.0973,-3.05527 z"
               id="path19165" />
          </g>
          <g
             id="g28673"
             transform="translate(-20.6375,-6.8791666)"
             clip-path="url(#clipPath28675)"
             style="opacity:0.278846;fill:#000000">
            <rect
               style="fill:#000000;fill-opacity:1;stroke:none;stroke-width:2.75495"
               id="rect28619"
               width="115.68993"
               height="28.13965"
               x="72.515236"
               y="231.00771"
               ry="14.069825" />
            <path
               id="path28621"
               style="opacity:1;fill:#000000;stroke-width:2.36958"
               d="M 80.221657,254.00003 H 182.35083 c 4.17751,0 5.95313,0.98187 5.95313,5.15938 0,4.1775 -6.54421,11.20568 -10.71563,10.9802 -9.78958,-0.52917 -88.413308,-0.26458 -96.837506,0 -4.175447,0.13114 -8.334375,-6.8027 -8.334375,-10.9802 0,-4.17751 3.627702,-5.15938 7.805208,-5.15938 z"
               sodipodi:nodetypes="sssssss" />
            <path
               id="path28623"
               style="fill:#000000;fill-opacity:1;stroke:none;stroke-width:2.53024"
               d="m 81.240325,226.50523 a 8.4205644,9.7550738 0 0 0 -8.420621,9.75515 8.4205644,9.7550738 0 0 0 8.420621,9.75513 8.4205644,9.7550738 0 0 0 6.3151,-3.31177 8.4205644,9.7550738 0 0 0 6.315589,3.31177 8.4205644,9.7550738 0 0 0 5.438489,-2.31593 8.4205644,9.7550738 0 0 0 5.437997,2.31593 8.4205644,9.7550738 0 0 0 4.91223,-1.83912 8.4205644,9.7550738 0 0 0 4.91175,1.83912 8.4205644,9.7550738 0 0 0 6.14016,-3.08208 8.4205644,9.7550738 0 0 0 6.14017,3.08208 8.4205644,9.7550738 0 0 0 5.438,-2.31593 8.4205644,9.7550738 0 0 0 5.4385,2.31593 8.4205644,9.7550738 0 0 0 5.61341,-2.49043 8.4205644,9.7550738 0 0 0 5.61392,2.49043 8.4205644,9.7550738 0 0 0 4.56138,-1.56215 8.4205644,9.7550738 0 0 0 4.56091,1.56215 8.4205644,9.7550738 0 0 0 5.08766,-1.98941 8.4205644,9.7550738 0 0 0 5.08715,1.98941 8.4205644,9.7550738 0 0 0 5.61392,-2.491 8.4205644,9.7550738 0 0 0 5.61342,2.491 8.4205644,9.7550738 0 0 0 8.42062,-9.75513 8.4205644,9.7550738 0 0 0 -8.42062,-9.75515 8.4205644,9.7550738 0 0 0 -5.611,2.48819 8.4205644,9.7550738 0 0 0 -5.61634,-2.48819 8.4205644,9.7550738 0 0 0 -5.08328,1.98606 8.4205644,9.7550738 0 0 0 -5.09153,-1.98606 8.4205644,9.7550738 0 0 0 -4.55652,1.55935 8.4205644,9.7550738 0 0 0 -4.56577,-1.55935 8.4205644,9.7550738 0 0 0 -5.61101,2.48819 8.4205644,9.7550738 0 0 0 -5.61632,-2.48819 8.4205644,9.7550738 0 0 0 -5.43461,2.31199 8.4205644,9.7550738 0 0 0 -5.44189,-2.31199 8.4205644,9.7550738 0 0 0 -6.1392,3.08095 8.4205644,9.7550738 0 0 0 -6.14113,-3.08095 8.4205644,9.7550738 0 0 0 -4.90786,1.83574 8.4205644,9.7550738 0 0 0 -4.91612,-1.83574 8.4205644,9.7550738 0 0 0 -5.434109,2.31199 8.4205644,9.7550738 0 0 0 -5.442377,-2.31199 8.4205644,9.7550738 0 0 0 -6.311702,3.30725 8.4205644,9.7550738 0 0 0 -6.318987,-3.30725 z" />
            <rect
               style="fill:#000000;fill-opacity:1;stroke:none;stroke-width:3.39291"
               id="rect28625"
               width="3.3489192"
               height="15.007813"
               x="157.15154"
               y="219.93945"
               ry="1.8759767" />
            <rect
               style="fill:#000000;fill-opacity:1;stroke:none;stroke-width:1.9403"
               id="rect28627"
               width="122.99667"
               height="7.8791022"
               x="68.86187"
               y="229.13171"
               ry="3.9395511" />
            <rect
               style="fill:#000000;fill-opacity:1;stroke:none;stroke-width:3.39291"
               id="rect28629"
               width="3.3489192"
               height="15.007813"
               x="92.456505"
               y="225.94255"
               ry="1.8759767" />
            <rect
               style="fill:#000000;fill-opacity:1;stroke:none;stroke-width:3.39291"
               id="rect28631"
               width="3.3489192"
               height="15.007813"
               x="152.88927"
               y="225.94255"
               ry="1.8759767" />
            <path
               id="path28633"
               style="fill:#000000;fill-opacity:1;stroke:none;stroke-width:3.32565"
               d="m 130.36038,195.1197 a 59.519432,33.590954 0 0 0 -59.519763,33.59102 59.519432,33.590954 0 0 0 0.05524,0.79595 H 189.82449 a 59.519432,33.590954 0 0 0 0.0553,-0.79595 59.519432,33.590954 0 0 0 -59.51934,-33.59102 z" />
            <rect
               style="fill:#000000;fill-opacity:1;stroke:none;stroke-width:3.39291"
               id="rect28635"
               width="3.3489192"
               height="15.007813"
               x="88.194237"
               y="231.94568"
               ry="1.8759767" />
            <path
               style="fill:#000000;fill-opacity:1;stroke:none;stroke-width:0.0449928px;stroke-linecap:butt;stroke-linejoin:miter;stroke-opacity:1"
               d="m 85.256817,218.85415 c 0,0 -0.05998,1.38942 -1.25865,2.81682 -1.19868,1.4274 -2.947273,1.60566 -3.322929,0.52537 -0.375657,-1.08031 0.368423,-2.35025 1.519993,-3.0986 1.151583,-0.74833 3.061586,-0.24359 3.061586,-0.24359 z"
               id="path28637" />
            <path
               style="fill:#000000;fill-opacity:1;stroke:none;stroke-width:0.0449928px;stroke-linecap:butt;stroke-linejoin:miter;stroke-opacity:1"
               d="m 94.632145,206.60007 c 0,0 0.259066,1.36322 -0.577683,3.05847 -0.836748,1.69526 -2.492107,2.32147 -3.103134,1.37102 -0.611027,-0.95046 -0.179277,-2.37513 0.766844,-3.39953 0.946121,-1.02438 2.913973,-1.02996 2.913973,-1.02996 z"
               id="path28639" />
            <path
               style="fill:#000000;fill-opacity:1;stroke:none;stroke-width:0.0449928px;stroke-linecap:butt;stroke-linejoin:miter;stroke-opacity:1"
               d="m 127.59294,200.12564 c 0,0 -0.10104,1.3867 -1.34133,2.77314 -1.2403,1.38644 -2.99331,1.50589 -3.33682,0.41351 -0.34352,-1.09238 0.43774,-2.33671 1.61089,-3.04599 1.17314,-0.7093 3.06726,-0.14066 3.06726,-0.14066 z"
               id="path28641" />
            <path
               style="fill:#000000;fill-opacity:1;stroke:none;stroke-width:0.0449928px;stroke-linecap:butt;stroke-linejoin:miter;stroke-opacity:1"
               d="m 142.43918,201.22384 c 0,0 1.23862,-0.43894 2.91912,0.24102 1.68051,0.67996 2.46414,2.35513 1.65262,3.11641 -0.8115,0.76128 -2.19094,0.47696 -3.25971,-0.39984 -1.06876,-0.87682 -1.31203,-2.95759 -1.31203,-2.95759 z"
               id="path28643" />
            <path
               style="fill:#000000;fill-opacity:1;stroke:none;stroke-width:0.0449928px;stroke-linecap:butt;stroke-linejoin:miter;stroke-opacity:1"
               d="m 132.58986,208.42483 c 0,0 1.21916,0.4969 2.11467,2.15771 0.89556,1.6608 0.50538,3.48581 -0.57515,3.52668 -1.08051,0.0408 -1.97846,-1.11061 -2.28369,-2.51058 -0.30524,-1.39999 0.74417,-3.17381 0.74417,-3.17381 z"
               id="path28645" />
            <path
               style="fill:#000000;fill-opacity:1;stroke:none;stroke-width:0.0449928px;stroke-linecap:butt;stroke-linejoin:miter;stroke-opacity:1"
               d="m 95.487365,217.56714 c 0,0 0.546353,1.26318 0.09793,3.11804 -0.448424,1.85488 -1.924249,2.86997 -2.72404,2.09473 -0.799791,-0.77525 -0.687109,-2.26753 0.01256,-3.49633 0.699662,-1.22878 2.613551,-1.71644 2.61355,-1.71644 z"
               id="path28647" />
            <path
               style="fill:#000000;fill-opacity:1;stroke:none;stroke-width:0.0449928px;stroke-linecap:butt;stroke-linejoin:miter;stroke-opacity:1"
               d="m 157.04123,208.33975 c 0,0 1.30486,0.0365 2.6679,1.28519 1.36303,1.24876 1.56488,3.10809 0.55868,3.52968 -1.00623,0.42156 -2.21252,-0.34601 -2.93746,-1.55804 -0.72495,-1.21202 -0.28912,-3.25683 -0.28912,-3.25683 z"
               id="path28649" />
            <path
               style="fill:#000000;fill-opacity:1;stroke:none;stroke-width:0.0449928px;stroke-linecap:butt;stroke-linejoin:miter;stroke-opacity:1"
               d="m 146.05816,210.57182 c 0,0 1.14778,0.66239 1.83194,2.43366 0.68417,1.77127 0.0735,3.52627 -1.00272,3.41635 -1.07626,-0.10993 -1.82529,-1.37656 -1.95622,-2.80704 -0.13093,-1.43047 1.127,-3.04297 1.127,-3.04297 z"
               id="path28651" />
            <path
               style="fill:#000000;fill-opacity:1;stroke:none;stroke-width:0.0449928px;stroke-linecap:butt;stroke-linejoin:miter;stroke-opacity:1"
               d="m 106.04586,211.36542 c 0,0 0.33862,1.34327 -0.39693,3.091 -0.73555,1.74774 -2.35088,2.48312 -3.01652,1.57525 -0.66564,-0.90785 -0.31843,-2.35851 0.56568,-3.44399 0.8841,-1.08546 2.84777,-1.22226 2.84777,-1.22226 z"
               id="path28653" />
            <path
               style="fill:#000000;fill-opacity:1;stroke:none;stroke-width:0.0449928px;stroke-linecap:butt;stroke-linejoin:miter;stroke-opacity:1"
               d="m 111.19576,219.93664 c 0,0 0.29162,1.35573 -0.50428,3.07318 -0.79592,1.71745 -2.43574,2.38844 -3.06932,1.4549 -0.63358,-0.93355 -0.23606,-2.36949 0.68523,-3.41925 0.92129,-1.04977 2.88837,-1.10883 2.88837,-1.10883 z"
               id="path28655" />
            <path
               style="fill:#000000;fill-opacity:1;stroke:none;stroke-width:0.0449928px;stroke-linecap:butt;stroke-linejoin:miter;stroke-opacity:1"
               d="m 139.71341,217.74849 c 0,0 0.98075,0.91785 1.278,2.8069 0.29725,1.88906 -0.66443,3.45536 -1.69078,3.09309 -1.02634,-0.36229 -1.4922,-1.7747 -1.32123,-3.20039 0.17097,-1.42566 1.73401,-2.6996 1.73401,-2.6996 z"
               id="path28657" />
            <path
               style="fill:#000000;fill-opacity:1;stroke:none;stroke-width:0.0449928px;stroke-linecap:butt;stroke-linejoin:miter;stroke-opacity:1"
               d="m 168.63695,209.99311 c 0,0 1.18371,-0.58627 2.9259,-0.11449 1.74221,0.47179 2.69964,2.04106 1.9747,2.89578 -0.72494,0.85475 -2.12578,0.73952 -3.28124,-0.002 -1.15546,-0.74153 -1.61936,-2.7793 -1.61936,-2.7793 z"
               id="path28659" />
            <path
               style="fill:#000000;fill-opacity:1;stroke:none;stroke-width:0.0449928px;stroke-linecap:butt;stroke-linejoin:miter;stroke-opacity:1"
               d="m 114.13248,201.25526 c 0,0 0.5517,1.26056 0.11113,3.11757 -0.44058,1.85701 -1.91209,2.87918 -2.71515,2.10778 -0.80306,-0.77138 -0.6967,-2.2642 -0.002,-3.49636 0.69445,-1.23211 2.60627,-1.72899 2.60627,-1.72899 z"
               id="path28661" />
            <path
               style="fill:#000000;fill-opacity:1;stroke:none;stroke-width:0.0449928px;stroke-linecap:butt;stroke-linejoin:miter;stroke-opacity:1"
               d="m 120.26013,209.15226 c 0,0 0.44987,1.30568 -0.13624,3.11644 -0.58611,1.81075 -2.13335,2.69692 -2.87244,1.85605 -0.73908,-0.84086 -0.51484,-2.3188 0.27472,-3.48407 0.78959,-1.16528 2.73393,-1.48842 2.73393,-1.48842 z"
               id="path28663" />
            <path
               style="fill:#000000;fill-opacity:1;stroke:none;stroke-width:0.0449928px;stroke-linecap:butt;stroke-linejoin:miter;stroke-opacity:1"
               d="m 125.41706,219.85099 c 0,0 1.21982,0.49514 2.11744,2.15467 0.89762,1.65952 0.50977,3.48508 -0.57068,3.52749 -1.08047,0.0424 -1.97988,-1.10774 -2.2869,-2.50727 -0.307,-1.39954 0.74014,-3.17489 0.74014,-3.17489 z"
               id="path28665" />
            <path
               style="fill:#000000;fill-opacity:1;stroke:none;stroke-width:0.0449928px;stroke-linecap:butt;stroke-linejoin:miter;stroke-opacity:1"
               d="m 153.34876,218.48632 c 0,0 1.08071,0.78005 1.59718,2.6147 0.51648,1.83467 -0.25397,3.51677 -1.31478,3.294 -1.06078,-0.22278 -1.68864,-1.56209 -1.68622,-2.99936 0.003,-1.43724 1.4038,-2.90935 1.4038,-2.90935 z"
               id="path28667" />
            <path
               style="fill:#000000;fill-opacity:1;stroke:none;stroke-width:0.0449928px;stroke-linecap:butt;stroke-linejoin:miter;stroke-opacity:1"
               d="m 162.52128,220.18054 c 0,0 1.30486,0.0365 2.6679,1.28519 1.36303,1.24875 1.56488,3.1081 0.55868,3.52968 -1.00623,0.42157 -2.21252,-0.346 -2.93746,-1.55802 -0.72496,-1.21202 -0.28912,-3.25685 -0.28912,-3.25685 z"
               id="path28669" />
            <path
               style="fill:#000000;fill-opacity:1;stroke:none;stroke-width:0.0449928px;stroke-linecap:butt;stroke-linejoin:miter;stroke-opacity:1"
               d="m 175.06078,219.01857 c 0,0 1.26634,-0.33736 2.89348,0.4767 1.62715,0.81408 2.28904,2.54786 1.4256,3.24124 -0.86348,0.69335 -2.21865,0.29816 -3.22178,-0.66267 -1.00316,-0.96078 -1.0973,-3.05527 -1.0973,-3.05527 z"
               id="path28671" />
          </g>
        </g>
      </g>
      <text
         xml:space="preserve"
         style="font-style:normal;font-variant:normal;font-weight:normal;font-stretch:normal;font-size:48.6367px;line-height:1.25;font-family:'Bauhaus 93';-inkscape-font-specification:'Bauhaus 93, ';fill:#ffffff;fill-opacity:1;stroke:url(#linearGradient89806);stroke-width:1.21592;stroke-opacity:1"
         x="-6.402823"
         y="212.07845"
         id="text74751"><tspan
           sodipodi:role="line"
           id="tspan74749"
           style="font-style:normal;font-variant:normal;font-weight:normal;font-stretch:normal;font-family:'Bauhaus 93';-inkscape-font-specification:'Bauhaus 93, ';fill:#ffffff;fill-opacity:1;stroke:url(#linearGradient89806);stroke-width:1.21592;stroke-opacity:1"
           x="-6.402823"
           y="212.07845">SNELLE HAP </tspan></text>
    </g>
  </g>
</svg>
